# xmcd
#
# Track frame offsets: 
#        150
#        20897
#        39269
#        59402
#        79242
#        96092
#        106898
#        124693
#        141265
#        160551
#        177699
#        197239
#        222793
#
# Disc length: 3272 seconds
#
# Revision: 1
# Processed by: cddbd v1.5.2PL0 Copyright (c) Steve Scherf et al.
# Submitted via: ExactAudioCopy v1.0b3
#
DISCID=b60cc60d
DTITLE=Conor Oberst - Upside Down Mountain
DYEAR=2014
DGENRE=Country
TTITLE0=Time Forgot
TTITLE1=Zigzagging Toward the Light
TTITLE2=Hundreds of Ways
TTITLE3=Artifact #1
TTITLE4=Lonely at the Top
TTITLE5=Enola Gay
TTITLE6=Double Life
TTITLE7=Kick
TTITLE8=Night at Lake Unknown
TTITLE9=You Are Your Mother's Child
TTITLE10=Governor's Ball
TTITLE11=Desert Island Questionnaire
TTITLE12=Common Knowledge
EXTD=YEAR: 2014
EXTT0=
EXTT1=
EXTT2=
EXTT3=
EXTT4=
EXTT5=
EXTT6=
EXTT7=
EXTT8=
EXTT9=
EXTT10=
EXTT11=
EXTT12=
PLAYORDER=
